<?xml version="1.0" encoding="utf-8"?>
<!-- Generator: Adobe Illustrator 16.0.0, SVG Export Plug-In . SVG Version: 6.00 Build 0)  -->
<!DOCTYPE svg PUBLIC "-//W3C//DTD SVG 1.1//EN" "http://www.w3.org/Graphics/SVG/1.1/DTD/svg11.dtd">
<svg version="1.1" id="Layer_1" xmlns="http://www.w3.org/2000/svg" xmlns:xlink="http://www.w3.org/1999/xlink" x="0px" y="0px"
	 width="197px" height="189.268px" viewBox="76.667 55.93 197 189.268" enable-background="new 76.667 55.93 197 189.268"
	 xml:space="preserve">
<g>
	<g transform="translate(158.905583, 135.966069)">
	</g>
</g>
<g>
	<g transform="translate(262.106704, 170.804133)">
	</g>
</g>
<g>
	<g>
		<defs>
			<rect id="SVGID_1_" x="76.667" y="70.099" width="197" height="156.968"/>
		</defs>
		<clipPath id="SVGID_2_">
			<use xlink:href="#SVGID_1_"  overflow="visible"/>
		</clipPath>
		<g clip-path="url(#SVGID_2_)">
			<path d="M179.636,70.108c-5.422,3.911-10.438,8.208-15.349,13.225c-4.928,4.947-7.667,9.313-13.932,16.525
				c-6.418,7.229-16.453,18.63-23.615,26.438c-7.1,7.683-12.901,13.41-18.646,19.845c-5.797,6.395-10.577,12.28-15.817,18.641
				c-5.308,6.399-10.365,12.738-15.584,19.375c8.809,7.988,18.012,14.892,28.104,21c10.057,6.104,17.833,11.688,31.854,15.349
				c14.026,3.584,35.173,7.172,51.479,6.141c16.22-1.141,33.199-7.609,45.339-12.754c12.011-5.219,19.859-12.652,26.672-18.178
				c6.813-5.541,11.345-10.438,13.934-14.875c-7.281-9.97-14.386-19.859-21.725-29.97c-7.339-10.188-15.313-21.459-21.963-30.463
				c-6.72-9.005-12.048-15.599-17.938-23.136c-5.923-7.614-11.578-14.771-17.229-21.963
				C190.036,73.589,184.833,71.849,179.636,70.108z"/>
		</g>
	</g>
</g>
<g>
	<g>
		<defs>
			<rect id="SVGID_3_" x="76.667" y="70.099" width="197" height="158"/>
		</defs>
		<clipPath id="SVGID_4_">
			<use xlink:href="#SVGID_3_"  overflow="visible"/>
		</clipPath>
		<g clip-path="url(#SVGID_4_)">
			<path fill="none" stroke="#000000" stroke-width="0.036" stroke-miterlimit="10" d="M179.636,70.108
				c-5.422,3.911-10.438,8.208-15.349,13.225c-4.928,4.947-7.667,9.313-13.932,16.525c-6.418,7.229-16.453,18.63-23.615,26.438
				c-7.1,7.683-12.901,13.41-18.646,19.845c-5.797,6.395-10.577,12.28-15.817,18.641c-5.308,6.399-10.365,12.738-15.584,19.375
				c8.809,7.988,18.012,14.892,28.104,21c10.057,6.104,17.833,11.687,31.854,15.349c14.026,3.584,35.173,7.172,51.479,6.141
				c16.22-1.141,33.199-7.609,45.339-12.754c12.011-5.219,19.859-12.652,26.672-18.178c6.813-5.541,11.345-10.438,13.934-14.875
				c-7.281-9.97-14.386-19.859-21.725-29.97c-7.339-10.188-15.313-21.459-21.963-30.463c-6.72-9.005-12.048-15.599-17.938-23.136
				c-5.923-7.614-11.578-14.771-17.229-21.963C190.036,73.589,184.833,71.849,179.636,70.108z"/>
		</g>
	</g>
</g>
<path fill="#EA0029" stroke="#000000" stroke-width="0.036" stroke-miterlimit="10" d="M179.636,72.718
	c-3.047,1.938-6.323,4.511-9.911,7.793c-3.625,3.297-8.136,7.625-11.578,11.791c-3.463,4.078-4.984,7.865-8.975,12.762
	c-4.094,4.906-9.386,10.197-15.109,16.286c-5.832,6.108-13.136,13.155-19.115,19.823c-5.983,6.578-11.438,13.666-16.292,19.369
	c-4.858,5.693-8.932,10.351-12.521,14.392c5.146,4.385,11.542,8.881,19.604,13.696c8.063,4.767,17.834,11.615,28.324,14.875
	c10.474,3.262,22.629,4.693,33.754,4.496c11.021-0.324,22.85-3.188,31.875-6.141c8.953-3.027,13.72-6.396,21.49-11.578
	c7.74-5.219,15.781-11.584,24.553-19.355c-8.442-12.885-17.938-27.159-29.047-43.666C205.548,110.697,193.423,92.863,179.636,72.718
	z"/>
<path fill="#EA0029" stroke="#000000" stroke-width="0.036" stroke-miterlimit="10" d="M181.518,72.009l12.284,5.183
	c11.109,13.442,22.25,27.469,33.996,42.979c11.755,15.51,23.463,31.531,35.874,49.104l-14.875,1.182
	c-12.197-17.774-23.63-34.447-34.938-50.988S191.938,87.358,181.518,72.009z"/>
<path fill="#E5F8CF" stroke="#000000" stroke-width="0.036" stroke-miterlimit="10" d="M264.615,170.925l-14.859,1.179l3.771,8.024
	l17.233,0.469L264.615,170.925z"/>
<path fill="#5AA469" stroke="#000000" stroke-width="0.036" stroke-miterlimit="10" d="M253.292,182.016
	c-0.453,1.94-3.786,5.149-10.146,9.696c-6.452,4.584-16.657,12.756-27.87,17.469c-11.307,4.6-25.875,8.662-38.959,10.146
	c-13.082,1.447-25.729,0.979-38.703-1.418c4.043,2.156,9.767,3.809,17.47,4.948c7.662,1.161,17.828,2.864,28.317,1.901
	c10.476-1.084,23.017-3.948,33.994-8.025c10.943-4.168,22.542-10.672,31.167-16.287c8.537-5.619,15.059-11.146,19.84-17
	C263.365,182.979,258.328,182.509,253.292,182.016z"/>
<path fill="#E5F8CF" stroke="#000000" stroke-width="0.036" stroke-miterlimit="10" d="M247.151,173.046l3.785,7.791
	c-8.932,8.537-18.427,15.547-29.046,21.256c-10.656,5.672-21.854,10.15-34.229,12.738c-12.447,2.5-27.396,3.48-39.661,2.375
	c-12.359-1.176-22-3.641-33.525-9.203c-11.505-5.656-22.995-13.52-34.954-24.082l4.97-6.381c7.573,6.25,15.438,11.688,24.078,16.525
	c8.572,4.787,17.031,9.641,27.146,12.266c10.109,2.594,22.267,3.699,33.052,3.318c10.724-0.4,20.797-2.025,30.926-5.672
	c10.115-3.75,20.984-11.088,29.048-16.291C236.714,182.472,242.709,177.704,247.151,173.046z"/>
<path stroke="#000000" stroke-width="0.036" stroke-miterlimit="10" d="M160.025,131.025c-1.155,0.256-3.385,5.037-4.239,7.084
	c-0.942,1.994-1.886,3.896-0.942,4.729c0.963,0.744,5.526,0.729,6.85-0.25c1.233-1.109,0.979-3.933,0.707-5.892
	C162.094,134.738,161.115,130.755,160.025,131.025z"/>
<path stroke="#000000" stroke-width="0.036" stroke-miterlimit="10" d="M204.188,99.858c0.563,1.344,1.396,3.5,2.354,4.729
	c0.906,1.162,3.024,2.901,3.078,2.354c-0.054-0.594-2.011-3.933-3.078-5.667c-1.104-1.797-2.881-4.458-3.297-4.713
	C202.846,96.343,203.626,98.447,204.188,99.858z"/>
<path stroke="#000000" stroke-width="0.036" stroke-miterlimit="10" d="M217.396,113.089c0.543,1.287,1.434,3.53,2.375,4.707
	c0.922,1.162,2.989,3.047,3.063,2.375c-0.072-0.797-1.979-4.817-3.063-6.614c-1.142-1.74-2.9-3.75-3.316-3.787
	C216.073,109.697,216.782,111.692,217.396,113.089z"/>
<path stroke="#000000" stroke-width="0.036" stroke-miterlimit="10" d="M228.032,132.91c0.563,1.341,1.395,3.496,2.354,4.73
	c0.875,1.213,2.85,2.696,3.063,2.354c0.146-0.489-0.833-3.209-1.88-4.946c-1.126-1.793-3.896-5.074-4.479-5.435
	C226.495,129.27,227.434,131.531,228.032,132.91z"/>
<path stroke="#000000" stroke-width="0.036" stroke-miterlimit="10" d="M198.751,136.229c-1.162,0.25-3.387,5.037-4.239,7.084
	c-0.923,1.938-1.923,3.946-0.96,4.707c0.96,0.729,5.527,0.766,6.851-0.234c1.229-1.088,0.979-3.969,0.703-5.905
	C200.782,139.906,199.855,135.973,198.751,136.229z"/>
<path stroke="#000000" stroke-width="0.036" stroke-miterlimit="10" d="M184.579,157.932c-1.156,0.256-3.388,5.04-4.24,7.088
	c-0.942,1.989-1.881,3.896-0.942,4.729c0.965,0.724,5.53,0.76,6.854-0.24c1.229-1.084,0.974-3.969,0.703-5.905
	C186.646,161.65,185.667,157.66,184.579,157.932z"/>
<path stroke="#000000" stroke-width="0.036" stroke-miterlimit="10" d="M134.297,152.046c-1.162,0.254-3.386,5.035-4.24,7.082
	c-0.922,1.938-1.922,3.953-0.957,4.715c0.957,0.724,5.525,0.761,6.849-0.239c1.229-1.084,0.979-3.97,0.702-5.906
	C136.329,155.722,135.4,151.792,134.297,152.046z"/>
<path stroke="#000000" stroke-width="0.036" stroke-miterlimit="10" d="M140.188,123.001c-1.016,0.196-2.791,4.202-3.572,5.926
	c-0.703,1.631-1.668,3.276-0.776,3.965c0.813,0.635,4.656,0.619,5.724-0.199c0.979-0.922,0.854-3.316,0.6-4.947
	C141.855,126.078,141.13,122.802,140.188,123.001z"/>
<path stroke="#000000" stroke-width="0.036" stroke-miterlimit="10" d="M162.693,107.884c-0.854,0.183-2.463,3.662-3.084,5.131
	c-0.629,1.432-1.411,2.807-0.666,3.422c0.703,0.583,3.983,0.474,4.942-0.178c0.906-0.78,0.693-2.879,0.526-4.275
	C164.177,110.53,163.505,107.724,162.693,107.884z"/>
<path stroke="#000000" stroke-width="0.036" stroke-miterlimit="10" d="M179.221,91.833c-0.855,0.183-2.466,3.661-3.085,5.125
	c-0.63,1.433-1.411,2.813-0.672,3.426c0.709,0.578,3.99,0.47,4.947-0.182c0.905-0.775,0.688-2.88,0.526-4.275
	C180.704,94.479,180.032,91.671,179.221,91.833z"/>
<path stroke="#000000" stroke-width="0.036" stroke-miterlimit="10" d="M183.475,118.979c-0.798,0.177-2.5,3.655-3.078,5.125
	c-0.619,1.432-1.447,2.807-0.688,3.428c0.688,0.578,4.043,0.47,4.965-0.184c0.923-0.744,0.65-2.88,0.504-4.261
	C184.964,121.655,184.255,118.796,183.475,118.979z"/>
<path stroke="#000000" stroke-width="0.036" stroke-miterlimit="10" d="M156.964,165.255c-1.12,0.256-3.422,5.037-4.255,7.084
	c-0.941,1.994-1.885,3.896-0.941,4.729c0.957,0.725,5.525,0.762,6.849-0.234c1.233-1.088,0.979-3.969,0.708-5.906
	C158.995,168.968,158.073,164.984,156.964,165.255z"/>
</svg>
