<?xml version="1.0" encoding="utf-8"?>
<!-- Generator: Adobe Illustrator 16.0.0, SVG Export Plug-In . SVG Version: 6.00 Build 0)  -->
<!DOCTYPE svg PUBLIC "-//W3C//DTD SVG 1.1//EN" "http://www.w3.org/Graphics/SVG/1.1/DTD/svg11.dtd">
<svg version="1.1" id="Layer_1" xmlns="http://www.w3.org/2000/svg" xmlns:xlink="http://www.w3.org/1999/xlink" x="0px" y="0px"
	 width="197px" height="189.268px" viewBox="0 0 197 189.268" enable-background="new 0 0 197 189.268" xml:space="preserve">
<g>
	<g transform="translate(158.905583, 135.966069)">
	</g>
</g>
<g>
	<g transform="translate(262.106704, 170.804133)">
	</g>
</g>
<g>
	<g>
		<g>
			<defs>
				<rect id="SVGID_1_" x="2.078" y="16.701" width="197" height="156.968"/>
			</defs>
			<clipPath id="SVGID_2_">
				<use xlink:href="#SVGID_1_"  overflow="visible"/>
			</clipPath>
			<g clip-path="url(#SVGID_2_)">
				<path d="M96.108,173.66c5.423-3.911,10.438-8.208,15.35-13.226c4.928-4.947,7.667-9.313,13.932-16.524
					c6.418-7.229,16.453-18.63,23.615-26.438c7.1-7.683,12.901-13.41,18.646-19.845c5.797-6.396,10.577-12.28,15.817-18.642
					c5.308-6.398,10.364-12.737,15.584-19.375c-8.81-7.987-18.013-14.892-28.104-21c-10.057-6.104-17.833-11.688-31.854-15.349
					c-14.026-3.584-35.174-7.172-51.479-6.141c-16.22,1.141-33.199,7.608-45.339,12.754c-12.012,5.219-19.859,12.651-26.672,18.178
					C8.791,53.594,4.259,58.491,1.67,62.928c7.281,9.97,14.386,19.859,21.726,29.97c7.338,10.188,15.313,21.459,21.963,30.463
					c6.72,9.006,12.048,15.6,17.938,23.137c5.924,7.613,11.578,14.771,17.229,21.963C85.709,170.179,90.912,171.919,96.108,173.66z"
					/>
			</g>
		</g>
	</g>
</g>
<g>
	<g>
		<g>
			<defs>
				<rect id="SVGID_3_" x="2.078" y="15.669" width="197" height="158"/>
			</defs>
			<clipPath id="SVGID_4_">
				<use xlink:href="#SVGID_3_"  overflow="visible"/>
			</clipPath>
			<g clip-path="url(#SVGID_4_)">
				<path fill="none" stroke="#000000" stroke-width="0.036" stroke-miterlimit="10" d="M96.108,173.66
					c5.423-3.911,10.438-8.208,15.35-13.226c4.928-4.947,7.667-9.313,13.932-16.524c6.418-7.229,16.453-18.63,23.615-26.438
					c7.1-7.683,12.901-13.41,18.646-19.845c5.797-6.396,10.577-12.28,15.817-18.642c5.308-6.398,10.364-12.737,15.584-19.375
					c-8.81-7.987-18.013-14.892-28.104-21c-10.057-6.104-17.833-11.687-31.854-15.349c-14.026-3.584-35.174-7.172-51.479-6.141
					c-16.22,1.141-33.199,7.608-45.339,12.754c-12.012,5.219-19.859,12.651-26.672,18.178C8.791,53.594,4.259,58.491,1.67,62.928
					c7.281,9.97,14.386,19.859,21.726,29.97c7.338,10.188,15.313,21.459,21.963,30.463c6.72,9.006,12.048,15.6,17.938,23.137
					c5.924,7.613,11.578,14.771,17.229,21.963C85.709,170.179,90.912,171.919,96.108,173.66z"/>
			</g>
		</g>
	</g>
</g>
<path fill="#EA0029" stroke="#000000" stroke-width="0.036" stroke-miterlimit="10" d="M96.108,171.05
	c3.048-1.938,6.324-4.511,9.912-7.793c3.625-3.297,8.136-7.625,11.578-11.791c3.463-4.078,4.983-7.865,8.975-12.762
	c4.094-4.906,9.386-10.197,15.109-16.286c5.832-6.108,13.136-13.155,19.114-19.823c5.983-6.578,11.438-13.666,16.292-19.369
	c4.858-5.692,8.933-10.351,12.521-14.392c-5.146-4.385-11.542-8.881-19.604-13.696c-8.063-4.767-17.834-11.615-28.323-14.875
	c-10.475-3.262-22.629-4.693-33.754-4.496c-11.021,0.324-22.851,3.188-31.875,6.142c-8.953,3.026-13.721,6.396-21.49,11.577
	c-7.74,5.22-15.781,11.584-24.553,19.355C38.452,85.726,47.948,100,59.058,116.507C70.197,133.071,82.322,150.906,96.108,171.05z"/>
<path fill="#EA0029" stroke="#000000" stroke-width="0.036" stroke-miterlimit="10" d="M94.228,171.759l-12.284-5.183
	c-11.109-13.442-22.25-27.47-33.996-42.979c-11.755-15.51-23.464-31.531-35.874-49.104l14.875-1.183
	c12.197,17.774,23.63,34.447,34.938,50.988C73.194,140.84,83.808,156.41,94.228,171.759z"/>
<path fill="#E5F8CF" stroke="#000000" stroke-width="0.036" stroke-miterlimit="10" d="M11.13,72.843l14.859-1.179l-3.771-8.024
	L4.985,63.171L11.13,72.843z"/>
<path fill="#5AA469" stroke="#000000" stroke-width="0.036" stroke-miterlimit="10" d="M22.453,61.752
	c0.453-1.94,3.786-5.149,10.146-9.696C39.052,47.472,49.256,39.3,60.47,34.587c11.307-4.601,25.875-8.662,38.959-10.146
	c13.082-1.446,25.729-0.979,38.702,1.418c-4.043-2.155-9.767-3.809-17.47-4.947c-7.662-1.161-17.828-2.864-28.316-1.901
	c-10.477,1.084-23.018,3.948-33.994,8.025c-10.943,4.168-22.543,10.672-31.168,16.287c-8.537,5.618-15.059,11.146-19.84,17
	C12.38,60.789,17.417,61.259,22.453,61.752z"/>
<path fill="#E5F8CF" stroke="#000000" stroke-width="0.036" stroke-miterlimit="10" d="M28.595,70.722l-3.785-7.791
	c8.932-8.537,18.427-15.547,29.045-21.256c10.656-5.672,21.854-10.15,34.229-12.738c12.447-2.5,27.396-3.479,39.661-2.375
	c12.359,1.176,22,3.642,33.525,9.203c11.504,5.656,22.995,13.521,34.954,24.082l-4.971,6.381
	c-7.572-6.25-15.438-11.688-24.077-16.524c-8.572-4.787-17.031-9.642-27.146-12.267c-10.109-2.594-22.268-3.699-33.053-3.317
	c-10.724,0.399-20.797,2.024-30.926,5.672c-10.115,3.75-20.983,11.088-29.048,16.291C39.031,61.296,33.036,66.064,28.595,70.722z"/>
<path stroke="#000000" stroke-width="0.036" stroke-miterlimit="10" d="M115.72,112.743c1.155-0.257,3.385-5.037,4.239-7.084
	c0.942-1.994,1.886-3.896,0.942-4.729c-0.963-0.744-5.526-0.729-6.85,0.25c-1.233,1.109-0.979,3.933-0.707,5.893
	C113.651,109.03,114.63,113.013,115.72,112.743z"/>
<path stroke="#000000" stroke-width="0.036" stroke-miterlimit="10" d="M71.558,143.91c-0.563-1.345-1.396-3.5-2.354-4.729
	c-0.906-1.162-3.024-2.901-3.078-2.354c0.054,0.594,2.011,3.933,3.078,5.667c1.104,1.797,2.881,4.458,3.297,4.713
	C72.899,147.425,72.119,145.321,71.558,143.91z"/>
<path stroke="#000000" stroke-width="0.036" stroke-miterlimit="10" d="M58.349,130.679c-0.543-1.287-1.434-3.53-2.375-4.707
	c-0.922-1.162-2.988-3.047-3.063-2.375c0.072,0.797,1.979,4.817,3.063,6.614c1.143,1.74,2.9,3.75,3.316,3.787
	C59.672,134.071,58.963,132.076,58.349,130.679z"/>
<path stroke="#000000" stroke-width="0.036" stroke-miterlimit="10" d="M47.713,110.858c-0.563-1.341-1.395-3.496-2.354-4.729
	c-0.875-1.213-2.85-2.696-3.063-2.354c-0.146,0.489,0.833,3.209,1.881,4.946c1.125,1.793,3.896,5.074,4.479,5.435
	C49.25,114.498,48.312,112.237,47.713,110.858z"/>
<path stroke="#000000" stroke-width="0.036" stroke-miterlimit="10" d="M76.994,107.539c1.162-0.25,3.387-5.037,4.239-7.084
	c0.923-1.938,1.923-3.946,0.96-4.707c-0.96-0.729-5.527-0.767-6.851,0.233c-1.229,1.088-0.979,3.97-0.703,5.905
	C74.963,103.862,75.89,107.795,76.994,107.539z"/>
<path stroke="#000000" stroke-width="0.036" stroke-miterlimit="10" d="M91.166,85.836c1.156-0.256,3.388-5.04,4.24-7.088
	c0.942-1.989,1.881-3.896,0.942-4.729c-0.965-0.724-5.53-0.76-6.854,0.24c-1.229,1.084-0.974,3.969-0.703,5.905
	C89.099,82.118,90.078,86.108,91.166,85.836z"/>
<path stroke="#000000" stroke-width="0.036" stroke-miterlimit="10" d="M141.448,91.722c1.162-0.254,3.386-5.035,4.24-7.082
	c0.922-1.938,1.922-3.953,0.957-4.715c-0.957-0.724-5.525-0.761-6.85,0.239c-1.229,1.084-0.979,3.97-0.701,5.905
	C139.416,88.046,140.345,91.976,141.448,91.722z"/>
<path stroke="#000000" stroke-width="0.036" stroke-miterlimit="10" d="M135.558,120.767c1.016-0.196,2.791-4.202,3.571-5.926
	c0.703-1.631,1.668-3.276,0.776-3.965c-0.813-0.635-4.656-0.619-5.725,0.199c-0.979,0.922-0.854,3.315-0.6,4.946
	C133.89,117.69,134.615,120.966,135.558,120.767z"/>
<path stroke="#000000" stroke-width="0.036" stroke-miterlimit="10" d="M113.052,135.884c0.854-0.183,2.463-3.662,3.084-5.131
	c0.629-1.433,1.411-2.808,0.666-3.422c-0.703-0.583-3.982-0.475-4.941,0.178c-0.906,0.78-0.693,2.879-0.526,4.275
	C111.568,133.238,112.24,136.044,113.052,135.884z"/>
<path stroke="#000000" stroke-width="0.036" stroke-miterlimit="10" d="M96.524,151.935c0.854-0.183,2.466-3.661,3.085-5.125
	c0.63-1.433,1.411-2.813,0.672-3.426c-0.709-0.578-3.99-0.47-4.947,0.182c-0.905,0.775-0.688,2.88-0.526,4.275
	C95.041,149.289,95.713,152.097,96.524,151.935z"/>
<path stroke="#000000" stroke-width="0.036" stroke-miterlimit="10" d="M92.271,124.789c0.798-0.178,2.5-3.655,3.078-5.125
	c0.619-1.433,1.446-2.808,0.688-3.429c-0.688-0.577-4.043-0.47-4.965,0.185c-0.924,0.744-0.65,2.88-0.504,4.261
	C90.781,122.113,91.49,124.972,92.271,124.789z"/>
<path stroke="#000000" stroke-width="0.036" stroke-miterlimit="10" d="M118.781,78.513c1.12-0.256,3.422-5.037,4.255-7.084
	c0.941-1.994,1.885-3.896,0.941-4.729c-0.957-0.726-5.525-0.763-6.85,0.233c-1.232,1.088-0.979,3.969-0.708,5.906
	C116.75,74.8,117.672,78.784,118.781,78.513z"/>
</svg>
