<?xml version="1.0" encoding="utf-8"?>
<!-- Generator: Adobe Illustrator 24.0.1, SVG Export Plug-In . SVG Version: 6.00 Build 0)  -->
<svg version="1.1" id="Layer_1" xmlns="http://www.w3.org/2000/svg" xmlns:xlink="http://www.w3.org/1999/xlink" x="0px" y="0px"
	 viewBox="0 0 210.84 214.59" style="enable-background:new 0 0 210.84 214.59;" xml:space="preserve">
<g>
	<polygon points="153.84,36.71 57,36.71 77,0 133.84,0 	"/>
</g>
<g>
	<circle cx="105.42" cy="120.4" r="35.22"/>
</g>
<g>
	<g>
		<path d="M210.84,102.02h-21V67.76c0-11.33-9.22-20.56-20.56-20.56H41.56C30.22,47.2,21,56.42,21,67.76v34.26H0V67.76
			C0,44.84,18.64,26.2,41.56,26.2h127.73c22.91,0,41.56,18.64,41.56,41.56V102.02z"/>
	</g>
	<g>
		<path d="M169.28,214.59H41.56C18.64,214.59,0,195.95,0,173.04v-34.26h21v34.26c0,11.33,9.22,20.55,20.56,20.55h127.73
			c11.33,0,20.56-9.22,20.56-20.55v-34.26h21v34.26C210.84,195.95,192.2,214.59,169.28,214.59z"/>
	</g>
</g>
</svg>
