<?xml version="1.0" encoding="utf-8"?>
<!-- Generator: Adobe Illustrator 16.0.0, SVG Export Plug-In . SVG Version: 6.00 Build 0)  -->
<!DOCTYPE svg PUBLIC "-//W3C//DTD SVG 1.1//EN" "http://www.w3.org/Graphics/SVG/1.1/DTD/svg11.dtd">
<svg version="1.1" id="Layer_1" xmlns="http://www.w3.org/2000/svg" xmlns:xlink="http://www.w3.org/1999/xlink" x="0px" y="0px"
	 width="360.166px" height="245.197px" viewBox="69.453 110.5 360.166 245.197"
	 enable-background="new 69.453 110.5 360.166 245.197" xml:space="preserve">
<g>
	<g transform="translate(95.038815, 238.168311)">
		<g>
			<path d="M33.607,58.296l0.125-2.583l-0.135-2.339l0.088-1.833l-0.344-3.354l-0.844-1.542l-1.938-4.766l-0.943-1.208l-0.932-1.464
				l-3.5-3.505l-2.766-1.552l-3.526-1.256l-4.058-0.609l-22.063-0.891l-1.484-0.322l-13.245-0.469l-1.703,0.755l-0.787,2.547
				l-0.286,4.156l0.083,1.755l-0.567,6.646l0.161,1.844l-0.531,2.396l0.297,2.516l-0.083,1.75l0.661,1.781l1.375,0.984l1.755-0.083
				l1.578,0.156l2,0.016l1.323,0.229l1.672-0.088l1.776-0.495l0.922-1.875l0.328-1.567l0.114-2.417l-0.042-2.589l1-1.703
				l1.625-0.838l25.531,1.557l1.635,0.745l1.12,0.974l1.276,2.979l0.135,2.427L19.8,57.467l-0.662,1.636l-0.901,1.458l-1.141,1.109
				l-1.443,0.516l-2.604,0.375L9.3,62.467l-1.49-0.239l-1.542,0.844l-0.755,1.802l-0.417,5.234l0.088,1.672l-0.088,1.828l0.661,1.87
				L7.3,76.384l2.906,0.224l2.427-0.136l2.495,0.203l1.672-0.083l1.688-0.422l3.052-1.021l4.453-2.459l1.313-1.271l3.099-3.688
				l1.313-3.021l0.406-1.484l0.833-1.797l0.073-1.495L33.607,58.296z"/>
		</g>
	</g>
</g>
<g>
	<g transform="translate(94.910492, 206.073467)">
		<g>
			<path d="M44.178,42.894l0.781-2.385l0.714-1.417l1.094-6.62l-0.24-3.38l-0.568-3.255l-1.198-3.078l-1.896-2.927l-1.323-1.13
				l-0.963-1.333l-2.896-2.099l-3.495-1.99L13.6,4.212l-1.516-0.484l-1.609-0.896l-1.286-0.38L2.856-0.34L1.434-1.236l-2.037,0.287
				l-1.276,1.438l-1.963,4.875l-1.636,3.099L-5.42,10.4l1.307,1.578l30.109,13.078l4.495,2.614l0.943,0.964l1.156,1.51l0.344,1.698
				l-0.188,3.104l-2.01,4.578l-1.156,1.583l-1.333,0.964l-1.453,0.817l-1.62,0.375l-1.651-0.177l-4.625-1.495L-5.556,30.556
				l-1.213-0.354l-2.37-1.229l-2.281-0.818l-2.078,0.177l-1.391,1.297l-0.641,1.448l-0.443,1.625l-1.75,3.146l-0.474,1.703
				l-0.094,1.87l1.011,1.63l1.594,0.521l1.828,0.802l1.151,0.693l10.776,4.469l1.427,0.901l1.516,0.484l12.177,5.635l6.302,2.229
				l3.464,0.614l3.125-0.078L29.6,56.78l1.469-0.448l1.495-0.708l2.677-1.734l1.359-1.219l1.188-0.844l2.573-2.328l1.922-2.703
				l0.672-1.526L44.178,42.894z"/>
		</g>
	</g>
</g>
<g>
	<g transform="translate(108.472807, 172.71424)">
		<g>
			<path d="M52.538,42.259l4.776-4.537l1.063-1.297l0.88-1.474l1.005-1.354l0.703-1.651l0.948-1.177l0.588-1.651l1.588-6.422
				l-0.057-3.474l-0.234-1.411l-0.646-1.948l-0.708-1.411l-0.646-1.359l-2.594-3.297l-2-1.771l-4.302-2.531l-1.594-0.297
				l-3.297-0.234l-2.005,0.115L44.595,5.55l-1.708,0.412l-6.01,3.182l-1.354,1l-1.24,1.12l-1.474,1L31.1,13.972l-3.771,2.474
				l-3.24,1.12l-1.708,0.058l-2.005-1.531l-1.297-1.886l-0.057-1.474l0.234-1.531l0.417-1.474l0.823-1.297l1.828-1.943l2.12-1.651
				l1.354-0.766l1.771-0.354l1.823-0.172l2.063,0.292l2.063-0.531l2.537-3l1.708-1.474l1.177-1.177l1.182-0.943l0.292-1.943
				l-0.531-1.474L38.527-7.59l-1.234-1l-4.713-1.417l-3.063-0.474l-6.599,1.177l-4.422,2.182l-2.771,1.823l-4.651,4.417
				l-0.942,1.651l-1.12,1.24L8.126,3.243L6.595,6.191L5.767,9.368l-0.885,4.776l0.708,4.828l2.177,4.302l2.708,3.063l1.885,1.771
				l2.771,1.942l3.005,1.12l4.891,0.531l6.183-1.823l2.828-1.411L42.35,20.28l3.125-1.12l1.474-0.057l1.823,1.12l1.005,1.943
				l0.115,1.651l-1.12,2.886l-1.708,1.942l-0.885,1.24l-3.297,2.708l-1.531,0.469l-1.651,0.354l-4.067-0.177l-1.651,0.708
				l-0.942,1.177l-1.292,0.942l-4.302,4.771l-0.594,1.531l0.766,1.708l1.354,1.005l1.417,0.943l1.412,0.703L35.1,47.79l1.588-0.057
				l1.651,0.12l3.359-0.766l1.708,0.057l1.651-0.588l1.531-0.823l3.12-1.474L52.538,42.259z"/>
		</g>
	</g>
</g>
<g>
	<g transform="translate(131.553481, 148.664902)">
		<g>
			<path d="M63.497,40.227l4.953-2.583l1.813-1.802l-0.271-2.463l-1.662-4.011l-1.604-2.739l-0.615-1.646l-1.526-2.963l-0.505-1.422
				l-1.021-1.542L57.362,6.909l-0.99-1.469L53.44-1.19l-0.49-2.542l0.99-1.589l2.849-1.567l2.958-0.969l1.469-0.984l1.386-0.583
				l0.875-1.438l0.099-2.088L60.2-20.112l-1.552-1.099l-1.896-0.286l-4.651,2.255l-1.495,0.537l-1.463,0.99l-1.5,0.542l-5.927,3.24
				l-1.646,0.427l-1.464,0.615l-1.463,0.984l-1.724,0.651l-1.203,0.953l-4.536,1.917l-2.214,1.354l-5.396,2.24l-1.063,1.438
				l-0.063,2.161l0.802,1.464l1.662,3.823l1.276,2.255l1.333,1.021l1.708,0.094l1.427-0.875l7.198-3.297l1.792,0.058l1.547,1.104
				l1.016,2.469l1.167,2.026l0.724,1.688l0.797,1.464l0.87,2.172l5.636,11.067l0.578,1.573l2.864,6.109l0.912,1.5l2.031,4.385
				l0.542,1.5l1.771,1.177l2.542-0.302L63.497,40.227z"/>
		</g>
	</g>
</g>
<g>
	<g transform="translate(158.905583, 135.966069)">
	</g>
</g>
<g>
	<g transform="translate(169.529769, 130.507834)">
		<g>
			<path fill="#00833E" d="M85.39,46.18l4.131,0.625l5.848-0.01l4.975-0.656l1.553-0.729l1.785-0.458l1.459-0.568l4.275-2.625
				l2.49-2.167l2.088-2.359l1.953-2.87l2.6-6.167l-0.391-1.531l-1.588-1.198l-4.678,0.01l-1.646-0.365l-1.666-0.031l-1.662-0.203
				l-1.979,0.865l-1.422,1.24l-0.943,1.521l-2.063,2.026l-1.41,1.073l-1.281,0.412l-3.016,1.375l-4.428-0.058l-2.391-0.417
				l-2.916-1.287l-2.809-1.698L80,27.596l-1.625-3.036l-0.463-1.703l-0.5-1.203l-0.313-1.526l-0.125-1.844l0.354-5.067L78.14,9.93
				l1.458-2.906l0.938-1.521l2.161-2.188l2.105-1.442l2.328-1.089l5.625-0.359l3.563,0.412l2.52,0.927l1.459,0.688l1.1,0.995
				l2.244,2.578l0.822,1.313l1.475,1.688l1.844,1.047l1.51-0.063l1.74,0.208l1.666,0.031l2.313,0.411l2.512-0.073l1.457-0.568
				l0.699-1.625l-0.371-1.859l-0.479-1.536l-0.381-1.781L117.63,1.82l-0.656-1.38l-1.068-1.495l-0.803-1.646l-2.16-2.567
				l-5.402-3.969l-7.797-3.219l-1.572-0.193l-1.646-0.365l-5.145-0.442l-8.172,1.021l-6.355,2.479l-2.536,1.661l-3.802,2.995
				l-2.443,2.667l-1.745,2.302l-2.401,4.51l-1.068,3.349l-1.328,7.088l0.073,6.104l0.833,4.818l3.073,7.479l3.151,3.896l3.516,3.505
				l3.442,2.156l3.63,1.844l1.474,0.438l1.62,0.698l1.475,0.432L85.39,46.18z"/>
		</g>
	</g>
</g>
<g>
	<g transform="translate(209.502177, 132.173691)">
		<g>
			<path fill="#00833E" d="M94.824,58.136l2.338,0.922l1.37,0.797l6.542,1.495l3.391-0.037l3.281-0.375l3.146-1.005l3.036-1.713
				l1.209-1.255l1.385-0.88l2.271-2.766l2.197-3.365l10.297-20.005l0.573-1.484l0.989-1.552l0.464-1.266l3.161-6.146l0.984-1.37
				l-0.161-2.052l-1.364-1.354l-4.745-2.255l-2.995-1.823l-1.938-0.063l-1.656,1.213L113.73,41.063l-2.881,4.328l-1.021,0.88
				l-1.573,1.063l-1.719,0.245l-3.088-0.375l-4.448-2.287l-1.511-1.245l-0.88-1.391l-0.729-1.5l-0.275-1.641l0.281-1.641
				l1.766-4.521l12.494-23.745l0.428-1.188l1.364-2.297l0.958-2.224l-0.047-2.083l-1.213-1.469l-1.412-0.724l-1.594-0.542
				l-3.031-1.938l-1.672-0.578l-1.859-0.208l-1.688,0.917l-0.614,1.558l-0.917,1.776l-0.76,1.109l-5.115,10.484l-0.984,1.37
				l-0.572,1.484l-6.365,11.813l-2.604,6.156l-0.823,3.417l-0.109,3.13l0.333,3.547l0.354,1.495l0.614,1.531l1.573,2.776
				l1.136,1.432l0.771,1.24l2.167,2.708l2.583,2.078l1.484,0.76L94.824,58.136z"/>
		</g>
	</g>
</g>
<g>
	<g transform="translate(241.983081, 148.345075)">
		<g>
			<path fill="#00833E" d="M95.312,65.521l3.912,3.984l2.255,1.208l2.276-0.974l3.349-2.76l2.156-2.333l1.396-1.067l2.391-2.328
				l1.214-0.896l1.177-1.427l9.959-8.989l1.114-1.375l5.489-4.74l2.287-1.208l1.807,0.484l2.328,2.271l1.792,2.547l1.37,1.115
				l0.958,1.156l1.636,0.417l2.025-0.51l5.865-5.318l0.599-1.807l-0.281-1.896l-3.511-3.792l-0.953-1.276l-1.369-1.114l-0.953-1.271
				l-4.828-4.729l-0.891-1.448l-1.011-1.219l-1.375-1.114l-1.12-1.458l-1.266-0.875l-3.156-3.776l-1.938-1.724l-3.719-4.51
				l-1.688-0.594l-2.083,0.567l-1.167,1.193l-3.172,2.708l-1.781,1.875l-0.588,1.573l0.406,1.667l1.255,1.109l5.255,5.922
				l0.464,1.724l-0.604,1.807l-2.067,1.688l-1.599,1.708l-1.401,1.182l-1.167,1.193l-1.828,1.463l-8.938,8.62l-1.338,1.005
				l-5.011,4.526l-1.167,1.313l-3.604,3.219l-1.276,0.953l-0.609,2.042l1.031,2.338L95.312,65.521z"/>
		</g>
	</g>
</g>
<g>
	<g transform="translate(262.106704, 170.804133)">
	</g>
</g>
<g>
	<g transform="translate(269.322052, 181.531529)">
		<g>
			<path d="M98.039,87.172l1.188,3.12l1.25,1.172l1.766,0.308l7.85-2.537l1.197-1.438l0.308-2.031l-0.536-1.661l0.021-2.109
				l1.516-1.542l1.583-0.25l8.693-2.896l1.797-0.406l5.604-2.161l8.109-2.271l2.006-0.036l1.275,1.516l0.75,1.511l1.172,1.458
				l1.526,0.386l7.875-2.459l1.198-1.438l0.411-1.713l-3.099-9.589l-0.303-1.479l-0.833-1.484l-2.099-6.5l-0.25-1.583l-0.589-1.823
				l-1.308-1.333l-2.156-0.177l-5.791,2.135l-1.558,0.328l-1.302,1.385l-0.313,2.026l0.516,1.583L135.05,57l-1.911,1.401
				l-24.266,8.109l-2.656-0.104l-3.276-4.724l-1.714-0.406l-7.369,2.12l-1.886,1.484l-0.198,1.813l0.484,1.51l0.646,1.453
				l0.427,2.401l0.875,2.433l0.672,1.536l0.703,3.271l1.089,2.276l1.255,3.886L98.039,87.172z"/>
		</g>
	</g>
</g>
<g>
	<g transform="translate(277.538009, 202.886078)">
		<g>
			<path d="M92.992,89.374l0.333,5.572l0.906,2.391l2.354,0.761l4.338,0.125l3.162-0.344l1.75,0.114l3.328-0.182l1.505,0.119
				l1.828-0.302l13.411-0.234l1.74-0.302l7.255,0.031l2.521,0.594l1.042,1.552l0.266,3.245l-0.323,3.094l0.303,1.739l-0.042,1.505
				l0.958,1.386l1.865,0.948l7.911-0.156l1.641-0.964l1.036-1.614l-0.156-5.167l0.12-1.583l-0.302-1.745l0.119-1.583l-0.531-6.74
				l0.281-1.672l0.037-1.588l-0.303-1.74l0.109-1.838l-0.375-1.49l0.104-4.922l-0.328-2.572l0.161-5.839l-0.88-1.558l-1.948-0.942
				l-1.661,0.13l-4.172-0.041l-2.573,0.244l-1.479,0.792l-0.787,1.526l0.214,1.661l0.073,7.917l-0.787,1.604l-1.641,0.969
				l-2.666-0.088l-2.328,0.234l-1.839-0.026l-1.661,0.13l-2.339-0.094l-12.401,0.62l-1.672-0.12l-6.744,0.12l-1.745,0.219
				l-4.833,0.058l-1.589-0.12l-1.797,1.141l-0.761,2.438L92.992,89.374z"/>
		</g>
	</g>
</g>
<g>
	<defs>
		<rect id="SVGID_1_" x="151.625" y="197.698" width="197" height="156.968"/>
	</defs>
	<clipPath id="SVGID_2_">
		<use xlink:href="#SVGID_1_"  overflow="visible"/>
	</clipPath>
	<g clip-path="url(#SVGID_2_)">
		<path d="M254.594,197.708c-5.422,3.911-10.438,8.208-15.349,13.224c-4.927,4.948-7.667,9.313-13.932,16.526
			c-6.417,7.229-16.453,18.63-23.615,26.438c-7.099,7.682-12.901,13.41-18.646,19.844c-5.797,6.395-10.578,12.281-15.818,18.641
			c-5.307,6.4-10.365,12.738-15.583,19.375c8.808,7.988,18.011,14.891,28.104,21c10.057,6.104,17.833,11.688,31.854,15.348
			c14.026,3.584,35.172,7.172,51.479,6.141c16.219-1.141,33.199-7.609,45.339-12.754c12.011-5.219,19.859-12.652,26.672-18.178
			c6.813-5.541,11.344-10.438,13.933-14.875c-7.281-9.969-14.386-19.859-21.724-29.969c-7.339-10.188-15.313-21.459-21.964-30.463
			c-6.719-9.005-12.047-15.599-17.938-23.136c-5.922-7.614-11.578-14.771-17.229-21.963
			C264.994,201.188,259.791,199.448,254.594,197.708z"/>
	</g>
</g>
<g>
	<defs>
		<rect id="SVGID_3_" x="151.625" y="197.698" width="197" height="158"/>
	</defs>
	<clipPath id="SVGID_4_">
		<use xlink:href="#SVGID_3_"  overflow="visible"/>
	</clipPath>
	<g clip-path="url(#SVGID_4_)">
		<path fill="none" stroke="#000000" stroke-width="0.036" stroke-miterlimit="10" d="M254.594,197.708
			c-5.422,3.911-10.438,8.208-15.349,13.224c-4.927,4.948-7.667,9.313-13.932,16.526c-6.417,7.229-16.453,18.63-23.615,26.438
			c-7.099,7.682-12.901,13.41-18.646,19.844c-5.797,6.395-10.578,12.281-15.818,18.641c-5.307,6.4-10.365,12.738-15.583,19.375
			c8.808,7.988,18.011,14.891,28.104,21c10.057,6.104,17.833,11.687,31.854,15.348c14.026,3.584,35.172,7.172,51.479,6.141
			c16.219-1.141,33.199-7.609,45.339-12.754c12.011-5.219,19.859-12.652,26.672-18.178c6.813-5.541,11.344-10.438,13.933-14.875
			c-7.281-9.969-14.386-19.859-21.724-29.969c-7.339-10.188-15.313-21.459-21.964-30.463c-6.719-9.005-12.047-15.599-17.938-23.136
			c-5.922-7.614-11.578-14.771-17.229-21.963C264.994,201.188,259.791,199.448,254.594,197.708z"/>
	</g>
</g>
<path fill="#EA0029" stroke="#000000" stroke-width="0.036" stroke-miterlimit="10" d="M254.594,200.318
	c-3.047,1.938-6.323,4.51-9.912,7.792c-3.625,3.297-8.135,7.625-11.578,11.792c-3.463,4.078-4.984,7.865-8.974,12.761
	c-4.094,4.906-9.386,10.198-15.109,16.286c-5.833,6.109-13.136,13.156-19.115,19.824c-5.984,6.578-11.438,13.666-16.292,19.369
	c-4.859,5.693-8.933,10.35-12.521,14.391c5.146,4.385,11.542,8.881,19.604,13.697c8.063,4.766,17.833,11.615,28.323,14.875
	c10.474,3.261,22.63,4.693,33.755,4.496c11.021-0.324,22.849-3.188,31.875-6.141c8.953-3.027,13.719-6.396,21.49-11.578
	c7.74-5.219,15.781-11.584,24.552-19.355c-8.442-12.885-17.937-27.16-29.046-43.666
	C280.506,238.297,268.381,220.463,254.594,200.318z"/>
<path fill="#EA0029" stroke="#000000" stroke-width="0.036" stroke-miterlimit="10" d="M256.475,199.609l12.285,5.182
	c11.109,13.443,22.25,27.469,33.996,42.979c11.755,15.51,23.463,31.532,35.874,49.104l-14.875,1.182
	c-12.197-17.775-23.63-34.447-34.937-50.989C277.51,230.526,266.896,214.958,256.475,199.609z"/>
<path fill="#E5F8CF" stroke="#000000" stroke-width="0.036" stroke-miterlimit="10" d="M339.573,298.525l-14.859,1.178l3.771,8.025
	l17.234,0.469L339.573,298.525z"/>
<path fill="#5AA469" stroke="#000000" stroke-width="0.036" stroke-miterlimit="10" d="M328.25,309.615
	c-0.453,1.941-3.786,5.15-10.146,9.697c-6.453,4.584-16.657,12.756-27.87,17.469c-11.307,4.599-25.875,8.661-38.959,10.146
	c-13.083,1.447-25.729,0.979-38.703-1.418c4.042,2.156,9.766,3.808,17.469,4.948c7.662,1.161,17.828,2.864,28.318,1.901
	c10.475-1.084,23.016-3.948,33.994-8.025c10.943-4.168,22.542-10.672,31.167-16.287c8.537-5.619,15.058-11.146,19.839-17
	C338.323,310.578,333.286,310.109,328.25,309.615z"/>
<path fill="#E5F8CF" stroke="#000000" stroke-width="0.036" stroke-miterlimit="10" d="M322.109,300.646l3.786,7.791
	c-8.932,8.537-18.427,15.547-29.046,21.256c-10.656,5.671-21.855,10.15-34.23,12.738c-12.447,2.5-27.395,3.48-39.661,2.375
	c-12.359-1.176-22-3.641-33.526-9.203c-11.505-5.656-22.995-13.52-34.953-24.082l4.969-6.381
	c7.573,6.25,15.438,11.688,24.078,16.525c8.573,4.787,17.031,9.641,27.146,12.266c10.109,2.594,22.266,3.699,33.052,3.318
	c10.723-0.4,20.797-2.026,30.926-5.672c10.115-3.75,20.984-11.088,29.047-16.291C311.672,310.072,317.667,305.303,322.109,300.646z"
	/>
<path stroke="#000000" stroke-width="0.036" stroke-miterlimit="10" d="M234.984,258.625c-1.156,0.256-3.385,5.037-4.24,7.084
	c-0.942,1.994-1.885,3.895-0.942,4.729c0.963,0.744,5.526,0.729,6.849-0.25c1.234-1.109,0.979-3.932,0.708-5.891
	C237.052,262.338,236.073,258.354,234.984,258.625z"/>
<path stroke="#000000" stroke-width="0.036" stroke-miterlimit="10" d="M279.146,227.458c0.563,1.344,1.395,3.5,2.354,4.729
	c0.906,1.162,3.025,2.901,3.078,2.354c-0.053-0.594-2.01-3.932-3.078-5.667c-1.104-1.797-2.881-4.458-3.297-4.713
	C277.803,223.943,278.584,226.047,279.146,227.458z"/>
<path stroke="#000000" stroke-width="0.036" stroke-miterlimit="10" d="M292.354,240.688c0.543,1.287,1.434,3.531,2.375,4.708
	c0.922,1.161,2.99,3.047,3.063,2.375c-0.072-0.797-1.979-4.818-3.063-6.615c-1.141-1.74-2.9-3.75-3.316-3.787
	C291.031,237.297,291.74,239.292,292.354,240.688z"/>
<path stroke="#000000" stroke-width="0.036" stroke-miterlimit="10" d="M302.99,260.51c0.563,1.34,1.395,3.496,2.354,4.73
	c0.875,1.213,2.849,2.697,3.063,2.354c0.146-0.49-0.833-3.209-1.88-4.947c-1.126-1.793-3.896-5.074-4.479-5.434
	C301.453,256.869,302.391,259.131,302.99,260.51z"/>
<path stroke="#000000" stroke-width="0.036" stroke-miterlimit="10" d="M273.709,263.828c-1.162,0.25-3.387,5.037-4.24,7.084
	c-0.922,1.938-1.922,3.947-0.959,4.707c0.959,0.73,5.527,0.766,6.85-0.234c1.229-1.088,0.979-3.969,0.703-5.906
	C275.74,267.506,274.813,263.572,273.709,263.828z"/>
<path stroke="#000000" stroke-width="0.036" stroke-miterlimit="10" d="M259.537,285.531c-1.156,0.256-3.387,5.041-4.24,7.088
	c-0.943,1.99-1.881,3.896-0.943,4.73c0.965,0.723,5.531,0.76,6.855-0.24c1.229-1.084,0.973-3.969,0.703-5.906
	C261.604,289.25,260.625,285.26,259.537,285.531z"/>
<path stroke="#000000" stroke-width="0.036" stroke-miterlimit="10" d="M209.255,279.646c-1.162,0.254-3.386,5.035-4.24,7.082
	c-0.922,1.938-1.922,3.953-0.958,4.715c0.958,0.723,5.526,0.76,6.849-0.24c1.229-1.084,0.979-3.969,0.703-5.906
	C211.287,283.322,210.359,279.391,209.255,279.646z"/>
<path stroke="#000000" stroke-width="0.036" stroke-miterlimit="10" d="M215.146,250.6c-1.016,0.197-2.792,4.203-3.573,5.926
	c-0.703,1.631-1.667,3.277-0.776,3.965c0.813,0.635,4.656,0.619,5.724-0.199c0.979-0.922,0.854-3.316,0.599-4.947
	C216.813,253.678,216.088,250.401,215.146,250.6z"/>
<path stroke="#000000" stroke-width="0.036" stroke-miterlimit="10" d="M237.651,235.484c-0.854,0.182-2.463,3.662-3.083,5.13
	c-0.63,1.432-1.412,2.807-0.667,3.422c0.703,0.583,3.984,0.474,4.943-0.177c0.906-0.781,0.693-2.88,0.526-4.276
	C239.135,238.13,238.463,235.323,237.651,235.484z"/>
<path stroke="#000000" stroke-width="0.036" stroke-miterlimit="10" d="M254.178,219.432c-0.855,0.183-2.465,3.662-3.084,5.125
	c-0.63,1.433-1.412,2.813-0.672,3.427c0.709,0.578,3.99,0.469,4.947-0.182c0.906-0.776,0.688-2.88,0.527-4.276
	C255.662,222.078,254.99,219.271,254.178,219.432z"/>
<path stroke="#000000" stroke-width="0.036" stroke-miterlimit="10" d="M258.432,246.578c-0.797,0.177-2.5,3.656-3.078,5.125
	c-0.619,1.432-1.447,2.807-0.688,3.428c0.688,0.578,4.043,0.469,4.965-0.184c0.922-0.744,0.65-2.879,0.504-4.26
	C259.922,249.255,259.213,246.396,258.432,246.578z"/>
<path stroke="#000000" stroke-width="0.036" stroke-miterlimit="10" d="M231.922,292.854c-1.12,0.256-3.422,5.037-4.255,7.084
	c-0.942,1.994-1.885,3.896-0.942,4.729c0.958,0.725,5.526,0.762,6.849-0.234c1.234-1.088,0.979-3.969,0.708-5.906
	C233.953,296.568,233.031,292.584,231.922,292.854z"/>
</svg>
